<svg width="24" height="24" viewBox="0 0 24 24" fill="none" xmlns="http://www.w3.org/2000/svg">
<g id="solar:calendar-bold">
<g id="Group">
<path id="Vector" d="M8.60003 4.59259C8.60003 4.43543 8.53682 4.2847 8.4243 4.17357C8.31177 4.06243 8.15916 4 8.00003 4C7.8409 4 7.68829 4.06243 7.57577 4.17357C7.46325 4.2847 7.40003 4.43543 7.40003 4.59259V5.84099C6.24803 5.93185 5.49283 6.15466 4.93763 6.7038C4.38163 7.25215 4.15603 7.99881 4.06323 9.1358H19.9368C19.844 7.99802 19.6184 7.25215 19.0624 6.7038C18.5072 6.15466 17.7512 5.93185 16.6 5.8402V4.59259C16.6 4.43543 16.5368 4.2847 16.4243 4.17357C16.3118 4.06243 16.1592 4 16 4C15.8409 4 15.6883 4.06243 15.5758 4.17357C15.4632 4.2847 15.4 4.43543 15.4 4.59259V5.78805C14.868 5.77778 14.2712 5.77778 13.6 5.77778H10.4C9.72883 5.77778 9.13203 5.77778 8.60003 5.78805V4.59259Z" fill="#8B949D"/>
<path id="Vector_2" fill-rule="evenodd" clip-rule="evenodd" d="M4 12.0988C4 11.4358 4 10.8464 4.0104 10.321H19.9896C20 10.8464 20 11.4358 20 12.0988V13.679C20 16.6586 20 18.1487 19.0624 19.074C18.1256 20 16.6168 20 13.6 20H10.4C7.3832 20 5.8744 20 4.9376 19.074C4 18.1487 4 16.6586 4 13.679V12.0988ZM16 13.679C16.2122 13.679 16.4157 13.5958 16.5657 13.4476C16.7157 13.2994 16.8 13.0984 16.8 12.8889C16.8 12.6793 16.7157 12.4784 16.5657 12.3302C16.4157 12.182 16.2122 12.0988 16 12.0988C15.7878 12.0988 15.5843 12.182 15.4343 12.3302C15.2843 12.4784 15.2 12.6793 15.2 12.8889C15.2 13.0984 15.2843 13.2994 15.4343 13.4476C15.5843 13.5958 15.7878 13.679 16 13.679ZM16 16.8395C16.2122 16.8395 16.4157 16.7563 16.5657 16.6081C16.7157 16.4599 16.8 16.2589 16.8 16.0494C16.8 15.8398 16.7157 15.6388 16.5657 15.4907C16.4157 15.3425 16.2122 15.2593 16 15.2593C15.7878 15.2593 15.5843 15.3425 15.4343 15.4907C15.2843 15.6388 15.2 15.8398 15.2 16.0494C15.2 16.2589 15.2843 16.4599 15.4343 16.6081C15.5843 16.7563 15.7878 16.8395 16 16.8395ZM12.8 12.8889C12.8 13.0984 12.7157 13.2994 12.5657 13.4476C12.4157 13.5958 12.2122 13.679 12 13.679C11.7878 13.679 11.5843 13.5958 11.4343 13.4476C11.2843 13.2994 11.2 13.0984 11.2 12.8889C11.2 12.6793 11.2843 12.4784 11.4343 12.3302C11.5843 12.182 11.7878 12.0988 12 12.0988C12.2122 12.0988 12.4157 12.182 12.5657 12.3302C12.7157 12.4784 12.8 12.6793 12.8 12.8889ZM12.8 16.0494C12.8 16.2589 12.7157 16.4599 12.5657 16.6081C12.4157 16.7563 12.2122 16.8395 12 16.8395C11.7878 16.8395 11.5843 16.7563 11.4343 16.6081C11.2843 16.4599 11.2 16.2589 11.2 16.0494C11.2 15.8398 11.2843 15.6388 11.4343 15.4907C11.5843 15.3425 11.7878 15.2593 12 15.2593C12.2122 15.2593 12.4157 15.3425 12.5657 15.4907C12.7157 15.6388 12.8 15.8398 12.8 16.0494ZM8 13.679C8.21217 13.679 8.41566 13.5958 8.56569 13.4476C8.71571 13.2994 8.8 13.0984 8.8 12.8889C8.8 12.6793 8.71571 12.4784 8.56569 12.3302C8.41566 12.182 8.21217 12.0988 8 12.0988C7.78783 12.0988 7.58434 12.182 7.43431 12.3302C7.28429 12.4784 7.2 12.6793 7.2 12.8889C7.2 13.0984 7.28429 13.2994 7.43431 13.4476C7.58434 13.5958 7.78783 13.679 8 13.679ZM8 16.8395C8.21217 16.8395 8.41566 16.7563 8.56569 16.6081C8.71571 16.4599 8.8 16.2589 8.8 16.0494C8.8 15.8398 8.71571 15.6388 8.56569 15.4907C8.41566 15.3425 8.21217 15.2593 8 15.2593C7.78783 15.2593 7.58434 15.3425 7.43431 15.4907C7.28429 15.6388 7.2 15.8398 7.2 16.0494C7.2 16.2589 7.28429 16.4599 7.43431 16.6081C7.58434 16.7563 7.78783 16.8395 8 16.8395Z" fill="#8B949D"/>
</g>
</g>
</svg>
