<svg width="24" height="24" viewBox="0 0 24 24" fill="none" xmlns="http://www.w3.org/2000/svg">
<g id="mingcute:filter-fill">
<g id="Group">
<path id="Vector" fill-rule="evenodd" clip-rule="evenodd" d="M4 5.26728C4 4.93118 4.14048 4.60884 4.39052 4.37118C4.64057 4.13352 4.97971 4 5.33333 4H18.6667C19.0203 4 19.3594 4.13352 19.6095 4.37118C19.8595 4.60884 20 4.93118 20 5.26728V7.02965C19.9999 7.47775 19.8125 7.90747 19.4791 8.22427L14.6667 12.7983V19.0705C14.6667 19.229 14.6241 19.3848 14.5429 19.5231C14.4618 19.6615 14.3448 19.7779 14.203 19.8612C14.0612 19.9445 13.8993 19.9919 13.7328 19.9991C13.5663 20.0062 13.4006 19.9727 13.2516 19.9019L9.94756 18.3321C9.763 18.2444 9.60778 18.1096 9.49929 17.9428C9.39081 17.7759 9.33334 17.5837 9.33333 17.3876V12.7983L4.52089 8.22427C4.18747 7.90747 4.0001 7.47775 4 7.02965V5.26728Z" fill="#151515"/>
</g>
</g>
</svg>
